<svg xmlns="http://www.w3.org/2000/svg" viewBox="0 0 330 100" style="width: 200px; height: 100px; position: absolute; top: 50%; left: 50%; transform: translate(-50%, -50%) scale(1); z-index: 0; cursor: pointer;"><g id="SvgjsG1085" featurekey="nameFeature-0" transform="matrix(2.1,0,0,2.1,20,0)" fill="#000000"><path d="M5.924 35.51 c-0.5632 0 -1.0196 -0.4572 -1.0196 -1.0204 l0 -17.738 c0 -0.5624 0.21442 -0.934 0.7012 -1.2156 l7.3844 -4.2684 c0.4872 -0.2816 0.9164 -0.2816 1.4036 0 l3.5008 2.0236 c0.4868 0.2816 0.7012 0.6532 0.7012 1.2156 l0 19.984 c0 0.5632 -0.4568 1.02 -1.02 1.02 s-1.02 -0.4568 -1.02 -1.02 l0 -19.616 l-2.864 -1.6556 l-6.7476 3.9004 l0 17.372 c0 0.5632 -0.4568 1.02 -1.02 1.02 z M5.9244 39.99960938 c-0.19199 0 -0.3716 -0.052032 -0.5252 -0.14441 l-3.6772 -2.1256 c-0.4868 -0.2816 -0.7012 -0.6532 -0.7012 -1.2156 l0 -22.007 c0 -0.5624 0.21442 -0.934 0.7012 -1.2156 l3.6772 -2.1256 c0.15359 -0.092384 0.3332 -0.14559 0.5252 -0.14559 c0.5632 0 1.02 0.4568 1.02 1.02 c0 0.38398 -0.21238 0.7184 -0.52596 0.8924 l-3.358 1.9408 l0 21.273 l3.358 1.9408 c0.31359 0.17398 0.52596 0.5084 0.52596 0.8924 c0 0.5632 -0.4568 1.02 -1.02 1.02 z M9.8084 40.00078124 c-0.5632 0 -1.0196 -0.45724 -1.0196 -1.0204 l0 -11.003 c0 -0.5624 0.21442 -0.934 0.7012 -1.2156 l3.6876 -2.1344 c0.16078 -0.092812 0.33598 -0.1368 0.50916 -0.1368 c0.35238 0 0.6952 0.18281 0.884 0.51 c0.092812 0.16078 0.1368 0.33598 0.1368 0.50916 l0.0048048 11.226 c0 0.5632 -0.4568 1.02 -1.02 1.02 s-1.02 -0.4568 -1.02 -1.02 l0 -9.4572 l-1.844 1.066 l0 10.636 c0 0.5632 -0.4568 1.02 -1.02 1.02 z M9.8088 24.285 c-0.5632 0 -1.0196 -0.45724 -1.0196 -1.0204 l0 -4.2684 c0 -0.5624 0.2148 -0.9336 0.7016 -1.2156 l3.6876 -2.1344 c0.16078 -0.092812 0.33598 -0.1368 0.50916 -0.1368 c0.35238 0 0.6952 0.18281 0.884 0.51 c0.092812 0.16078 0.1368 0.33598 0.1368 0.50916 l0.0048048 4.4912 c0 0.5632 -0.4572 1.02 -1.0204 1.02 s-1.02 -0.4568 -1.02 -1.02 l0 -2.7224 l-1.844 1.066 l0 3.9016 c0 0.5632 -0.4568 1.02 -1.02 1.02 z M21.639200000000002 40 l0.0030859 0.00082032 c-0.5508 0 -1.0212 -0.4568 -1.0212 -1.0252 l0.0048048 -13.244 c0 -0.5624 0.21442 -0.934 0.7012 -1.2156 l7.3844 -4.2684 c0.24359 -0.14078 0.4728 -0.21117 0.70204 -0.21117 s0.45844 0.070392 0.70204 0.21117 l3.5008 2.0236 c0.4868 0.2816 0.7012 0.6532 0.7012 1.2156 l0 4.0468 c0 0.5624 -0.21442 0.934 -0.7016 1.2156 l-3.1824 1.8396 l0 6.1464 c0 0.5632 -0.4568 1.02 -1.02 1.02 s-1.02 -0.4568 -1.02 -1.02 l0 -6.5132 c0 -0.5624 0.21442 -0.934 0.7012 -1.2156 l3.1824 -1.8396 l0 -3.3128 l-2.864 -1.6552 l-6.7476 3.9004 l0 11.114 l1.844 -1.066 l0 -8.17 c0 -0.5624 0.21442 -0.934 0.7012 -1.2156 l3.6772 -2.1256 c0.1532 -0.092384 0.33281 -0.14559 0.5248 -0.14559 c0.5632 0 1.02 0.4568 1.02 1.02 c0 0.38398 -0.21238 0.7184 -0.52596 0.8924 l-3.358 1.9408 l0 8.17 c0 0.5624 -0.21442 0.934 -0.7016 1.2152 l-3.696 2.1348 c-0.15559 0.089608 -0.33238 0.13723 -0.512 0.13723 z M40.7548 12.931999999999999 c-0.31359 -0.17398 -0.52596 -0.5088 -0.52596 -0.89276 c0 -0.5632 0.4568 -1.02 1.02 -1.02 c0.19199 0 0.3716 0.053204 0.5252 0.14559 l3.6772 2.1256 c0.4872 0.2816 0.7016 0.6532 0.7016 1.2156 l0 8.7584 c0 0.5632 -0.4568 1.02 -1.02 1.02 s-1.02 -0.4568 -1.02 -1.02 l0 -8.3916 z M41.7428 38.0868 c0.31359 0.17398 0.5276 0.5096 0.5276 0.8936 c0 0.5632 -0.4568 1.02 -1.02 1.02 c-0.19199 0 -0.3716 -0.053204 -0.5252 -0.14559 l-3.6772 -2.1256 c-0.4868 -0.2816 -0.7012 -0.6532 -0.7012 -1.2156 l-0.0048048 -22.232 c0 -0.5504 0.4512 -1.0152 1.0192 -1.0152 c0.1732 0 0.3484 0.043984 0.50916 0.1368 l3.6972 2.1332 c0.4868 0.2816 0.7012 0.6532 0.7012 1.2156 l0 8.7584 c0 0.5632 -0.4568 1.02 -1.02 1.02 s-1.02 -0.4568 -1.02 -1.02 l0 -8.3916 l-1.844 -1.066 l0 20.094 z M53.922 27.534 l0.0024219 0.00089844 c0 0.5624 -0.21442 0.934 -0.7012 1.2156 l-2.1644 1.2508 l2.1644 1.2512 c0.4872 0.2816 0.7016 0.6532 0.7016 1.2156 l0 4.2684 c0 0.5632 -0.4568 1.02 -1.02 1.02 s-1.02 -0.4568 -1.02 -1.02 l0 -3.9016 l-3.3784 -1.9492 c-0.4048 -0.23359 -0.5112 -0.6608 -0.51044 -0.8884 c0.0016016 -0.36359 0.1948 -0.6964 0.5096 -0.878 l3.3796 -1.9516 l0 -5.558 l-1.844 -1.066 l0 4.7456 c0 0.5624 -0.21442 0.934 -0.7016 1.2156 l-7.0664 4.0844 l0 3.9016 c0 0.5632 -0.4568 1.02 -1.02 1.02 s-1.02 -0.4568 -1.02 -1.02 l0 -4.2684 c0 -0.5624 0.21442 -0.934 0.7012 -1.2156 l7.0664 -4.0844 l-0.0048048 -6.1504 c0 -0.5504 0.4568 -1.0152 1.0188 -1.0152 c0.1732 0 0.3484 0.043984 0.5088 0.1368 l3.6972 2.1332 c0.4868 0.2816 0.7012 0.6532 0.7012 1.2156 l0 6.2916 z M49.339 33.4976 c0.4868 0.2816 0.702 0.6528 0.702 1.2152 l0 4.2684 c0 0.5632 -0.4568 1.02 -1.02 1.02 s-1.02 -0.4568 -1.02 -1.02 l0 -3.9016 l-3.358 -1.9408 c-0.31359 -0.17398 -0.52596 -0.5084 -0.52596 -0.8924 c0 -0.5632 0.4568 -1.02 1.02 -1.02 c0.19199 0 0.3716 0.053204 0.5248 0.14559 z M56.9992 40 c-0.6728 0 -1.0188 -0.59208 -1.0188 -1.0249 l0.0048048 -15.711 c0 -0.5632 0.4564 -1.02 1.0196 -1.02 s1.02 0.4568 1.02 1.02 l0 13.947 l2.3388 -1.352 c0.15359 -0.092384 0.3332 -0.14559 0.5252 -0.14559 c0.5632 0 1.02 0.4568 1.02 1.02 c0 0.38398 -0.21558 0.7132 -0.52596 0.89244 l-3.8716 2.2364 c-0.15559 0.089608 -0.33238 0.13723 -0.512 0.13723 z M60.8908 33.2644 c-0.5632 0 -1.02 -0.4568 -1.02 -1.02 l0 -11.225 c0 -0.5632 0.4568 -1.02 1.02 -1.02 s1.02 0.4568 1.02 1.02 l0 11.225 c0 0.5632 -0.4568 1.02 -1.02 1.02 z M57.0012 19.796 l0.0020312 0.0007422 c-0.6728 0 -1.0208 -0.5924 -1.0208 -1.0252 l0.0048048 -4.2644 c0.00078124 -0.5624 0.21438 -0.934 0.70116 -1.2156 l3.6772 -2.1256 c0.15359 -0.092384 0.3332 -0.14559 0.5252 -0.14559 c0.5632 0 1.02 0.4568 1.02 1.02 c0 0.38398 -0.21238 0.7184 -0.52596 0.8924 l-3.358 1.9408 l0 2.1336 l2.3388 -1.352 c0.15359 -0.092384 0.3332 -0.14559 0.5252 -0.14559 c0.5632 0 1.02 0.4568 1.02 1.02 c0 0.38398 -0.21558 0.7132 -0.52596 0.8928 l-3.8716 2.2364 c-0.15559 0.089608 -0.33238 0.13723 -0.512 0.13723 z M68.84400000000001 39.963594 c-0.22922 0 -0.45796 -0.070392 -0.70156 -0.21117 l-3.5008 -2.0236 c-0.4868 -0.2816 -0.7012 -0.6532 -0.7012 -1.2156 l0 -17.738 c0 -0.5632 0.4568 -1.02 1.02 -1.02 s1.02 0.4568 1.02 1.02 l0 17.372 l2.864 1.6556 l2.864 -1.6556 l0 -3.9016 c0 -0.5632 0.4568 -1.02 1.02 -1.02 s1.02 0.4568 1.02 1.02 l0 4.2684 c0 0.5624 -0.21442 0.934 -0.7016 1.2156 l-3.5008 2.0236 c-0.24359 0.14078 -0.4728 0.21117 -0.70204 0.21117 z M68.84440000000001 35.51 c-0.5632 0 -1.0196 -0.4564 -1.0196 -1.0196 l0 -6.5132 c0 -0.5624 0.21442 -0.934 0.7012 -1.2156 l3.6772 -2.1256 c0.15359 -0.092384 0.3332 -0.14559 0.5252 -0.14559 c0.5632 0 1.02 0.4568 1.02 1.02 c0 0.38398 -0.21238 0.7184 -0.52596 0.8924 l-3.358 1.9408 l0 6.1464 c0 0.5632 -0.4568 1.02 -1.02 1.02 z M68.8392 24.286 l0.0027734 -0.000078124 c-0.5512 0 -1.0216 -0.4568 -1.0216 -1.0252 l0.0048048 -6.7308 c0 -0.5632 0.4564 -1.02 1.0196 -1.02 s1.02 0.4568 1.02 1.02 l0 4.9672 l2.3388 -1.352 c0.15359 -0.092384 0.3332 -0.14559 0.5252 -0.14559 c0.5632 0 1.02 0.4568 1.02 1.02 c0 0.38398 -0.2152 0.7132 -0.52596 0.8928 l-3.8716 2.2364 c-0.15559 0.089608 -0.33238 0.13723 -0.512 0.13723 z M80.68400000000001 39.963594 c-0.22922 0 -0.45796 -0.070392 -0.70156 -0.21117 l-3.5008 -2.0236 c-0.4868 -0.2816 -0.7012 -0.6532 -0.7012 -1.2156 l0 -13.248 c0 -0.5632 0.4568 -1.02 1.02 -1.02 s1.02 0.4568 1.02 1.02 l0 12.882 l2.864 1.6556 l7.2424 -4.1864 c0.15359 -0.092384 0.3332 -0.14559 0.5252 -0.14559 c0.5632 0 1.02 0.4568 1.02 1.02 c0 0.38398 -0.21238 0.7184 -0.52596 0.8924 l-7.56 4.37 c-0.24359 0.14078 -0.4728 0.21117 -0.70204 0.21117 z M80.68440000000001 35.51 c-0.5632 0 -1.02 -0.4568 -1.02 -1.02 l0 -13.47 c0 -0.5632 0.4568 -1.02 1.02 -1.02 s1.02 0.4568 1.02 1.02 l0 13.47 c0 0.5632 -0.4568 1.02 -1.02 1.02 z M88.452 40 c-0.5632 0 -1.0192 -0.4576 -1.0192 -1.0208 c0 -0.38398 0.21238 -0.7184 0.52596 -0.8924 l3.358 -1.9408 l0 -13.359 l-1.844 1.066 l0 5.9248 c0 0.5624 -0.21442 0.934 -0.7012 1.2156 l-3.6772 2.1256 c-0.15359 0.092384 -0.3332 0.14559 -0.5252 0.14559 c-0.5632 0 -1.02 -0.4568 -1.02 -1.02 c0 -0.38398 0.21238 -0.7184 0.52596 -0.8924 l3.358 -1.9408 l0 -5.9248 c0 -0.5624 0.21442 -0.934 0.7012 -1.2156 l3.6868 -2.1332 c0.15559 -0.089608 0.33238 -0.13723 0.512 -0.13723 c0.5504 0 1.0184 0.452 1.0184 1.0196 l0.004414 15.493 c0 0.5624 -0.21442 0.934 -0.7016 1.2156 l-3.6772 2.1256 c-0.15359 0.092384 -0.3332 0.14559 -0.5252 0.14559 z M96.39920000000001 40 l0.0030859 0.00082032 c-0.5508 0 -1.0212 -0.4568 -1.0212 -1.0252 l0.0048048 -13.244 c0 -0.5624 0.21442 -0.934 0.7012 -1.2156 l7.3844 -4.2684 c0.24359 -0.14078 0.4728 -0.21117 0.70204 -0.21117 s0.45844 0.070392 0.70204 0.21117 l3.5008 2.0236 c0.4868 0.2816 0.7012 0.6532 0.7012 1.2156 l0 4.0468 c0 0.5624 -0.21442 0.934 -0.7016 1.2156 l-3.1824 1.8396 l0 6.1464 c0 0.5632 -0.4568 1.02 -1.02 1.02 s-1.02 -0.4568 -1.02 -1.02 l0 -6.5132 c0 -0.5624 0.21442 -0.934 0.7012 -1.2156 l3.1824 -1.8396 l0 -3.3128 l-2.864 -1.6552 l-6.7476 3.9004 l0 11.114 l1.844 -1.066 l0 -8.17 c0 -0.5624 0.21442 -0.934 0.7012 -1.2156 l3.6772 -2.1256 c0.1532 -0.092384 0.33281 -0.14559 0.5248 -0.14559 c0.5632 0 1.02 0.4568 1.02 1.02 c0 0.38398 -0.21238 0.7184 -0.52596 0.8924 l-3.358 1.9408 l0 8.17 c0 0.5624 -0.21442 0.934 -0.7016 1.2152 l-3.696 2.1348 c-0.15559 0.089608 -0.33238 0.13723 -0.512 0.13723 z M116.00400000000002 39.963594 l0.0045312 0.0012109 c-0.22922 0 -0.45844 -0.070392 -0.70204 -0.21117 l-3.5008 -2.0236 c-0.4868 -0.2816 -0.7012 -0.6532 -0.7012 -1.2156 l0 -13.027 c0 -0.5624 0.21442 -0.934 0.7012 -1.2156 l3.6772 -2.1256 c0.15359 -0.092384 0.3332 -0.14559 0.5252 -0.14559 c0.5632 0 1.02 0.4568 1.02 1.02 c0 0.38398 -0.21238 0.7184 -0.52596 0.8924 l-3.358 1.9408 l0 12.293 l2.864 1.6556 l6.7476 -3.9004 l0 -11.114 l-5.7276 3.3108 l0 6.6236 l1.844 -1.066 l0 -3.9016 c0 -0.5632 0.4568 -1.02 1.02 -1.02 s1.02 0.4568 1.02 1.02 l0 4.2684 c0 0.5624 -0.21442 0.93436 -0.7016 1.2156 l-3.6964 2.1348 c-0.15559 0.089608 -0.33238 0.13723 -0.512 0.13723 c-0.6728 0 -1.0208 -0.5924 -1.0208 -1.0252 l0.0048048 -8.7544 c0 -0.5624 0.21398 -0.934 0.7008 -1.2156 l7.5708 -4.378 c0.15559 -0.089608 0.33238 -0.13723 0.512 -0.13723 c0.5504 0 1.0184 0.452 1.0184 1.0196 l0.004414 13.248 c0 0.5624 -0.2148 0.934 -0.702 1.2116 l-7.3844 4.2724 c-0.24359 0.14078 -0.4728 0.21117 -0.70204 0.21117 z M127.5216 28.785 c-0.4868 -0.2816 -0.69996 -0.65284 -0.69996 -1.2152 l0 -4.0468 c0 -0.5624 0.21442 -0.934 0.7012 -1.2156 l3.6772 -2.1256 c0.15359 -0.092384 0.3332 -0.14559 0.5252 -0.14559 c0.5632 0 1.02 0.4568 1.02 1.02 c0 0.38398 -0.21238 0.7184 -0.52596 0.8924 l-3.358 1.9408 l0 3.3128 l2.864 1.6552 l3.3684 -1.9488 c0.15559 -0.089608 0.33238 -0.13723 0.512 -0.13723 c0.5504 0 1.0184 0.452 1.0184 1.0196 l0.004414 4.268 c0 0.5624 -0.2148 0.934 -0.7016 1.2156 l-3.6772 2.1256 c-0.15359 0.092384 -0.3332 0.14559 -0.5252 0.14559 c-0.5632 0 -1.02 -0.4568 -1.02 -1.02 c0 -0.38398 0.21238 -0.7184 0.52596 -0.8924 l3.358 -1.9408 l0 -2.1336 l-2.162 1.2496 c-0.24359 0.14078 -0.4728 0.21117 -0.70204 0.21117 s-0.45844 -0.070392 -0.70204 -0.21117 z M130.70520000000002 25.546 c0 -0.38398 0.21277 -0.71884 0.52636 -0.8928 l3.676 -2.1248 c0.24359 -0.14078 0.4728 -0.21117 0.70204 -0.21117 s0.45844 0.070392 0.70204 0.21117 l2.162 1.2496 l0 -2.7224 c0 -0.5632 0.4568 -1.02 1.02 -1.02 s1.0204 0.4568 1.0204 1.02 l-0.004414 4.4904 c0 0.6728 -0.5892 1.0208 -1.022 1.0208 c-0.1732 0 -0.3484 -0.043984 -0.50916 -0.1368 l-3.3692 -1.9512 l-3.3588 1.9416 c-0.15359 0.092384 -0.3332 0.14559 -0.5252 0.14559 c-0.5632 0 -1.02 -0.4568 -1.02 -1.02 z M139.49300000000002 29.016 c0.5632 0 1.0205 0.4568 1.0205 1.02 l0 4.2684 c0 0.5624 -0.21442 0.934 -0.7016 1.2116 l-7.3844 4.2724 c-0.24359 0.14078 -0.4728 0.21117 -0.70204 0.21117 s-0.45844 -0.070392 -0.70204 -0.21117 l-3.5008 -2.0236 c-0.4868 -0.2816 -0.7012 -0.6532 -0.7012 -1.2156 l0 -4.2684 c0 -0.5632 0.4568 -1.02 1.02 -1.02 s1.02 0.4568 1.02 1.02 l0 3.9016 l2.864 1.6556 l6.7476 -3.9004 l0 -3.9016 c0 -0.5632 0.4568 -1.02 1.02 -1.02 z"></path></g></svg>